<mxfile host="app.diagrams.net" modified="2022-10-23T18:49:21.550Z" agent="5.0 (Windows NT 10.0; Win64; x64) AppleWebKit/537.36 (KHTML, like Gecko) Chrome/106.0.0.0 Safari/537.36" etag="FsD3Nxnp2rsogLTY06qh" version="20.5.1" type="github">
  <diagram id="6a731a19-8d31-9384-78a2-239565b7b9f0" name="Page-1">
    <mxGraphModel dx="3732" dy="2409" grid="1" gridSize="10" guides="1" tooltips="1" connect="1" arrows="1" fold="1" page="1" pageScale="1" pageWidth="827" pageHeight="1169" background="#FFFFFF" math="0" shadow="0">
      <root>
        <mxCell id="0" />
        <mxCell id="1" parent="0" />
        <mxCell id="1YaqFMHaYyieEzxT80kR-2257" value="" style="image;html=1;image=img/lib/clip_art/networking/Firewall_02_128x128.png" vertex="1" parent="1">
          <mxGeometry x="-1015" y="-675" width="210" height="180" as="geometry" />
        </mxCell>
        <mxCell id="1YaqFMHaYyieEzxT80kR-2258" value="" style="aspect=fixed;perimeter=ellipsePerimeter;html=1;align=center;shadow=0;dashed=0;spacingTop=3;image;image=img/lib/active_directory/internet_cloud.svg;" vertex="1" parent="1">
          <mxGeometry x="-1140.16" y="-1140" width="460.32" height="290" as="geometry" />
        </mxCell>
        <mxCell id="1YaqFMHaYyieEzxT80kR-2264" style="rounded=1;orthogonalLoop=1;jettySize=auto;html=1;exitX=0.5;exitY=0;exitDx=0;exitDy=0;strokeColor=#CC0000;endArrow=none;endFill=0;strokeWidth=5;" edge="1" parent="1" source="1YaqFMHaYyieEzxT80kR-2257" target="1YaqFMHaYyieEzxT80kR-2258">
          <mxGeometry relative="1" as="geometry" />
        </mxCell>
        <mxCell id="1YaqFMHaYyieEzxT80kR-2265" value="FW1" style="text;strokeColor=none;fillColor=none;html=1;fontSize=24;fontStyle=1;verticalAlign=middle;align=center;" vertex="1" parent="1">
          <mxGeometry x="-960" y="-610" width="100" height="40" as="geometry" />
        </mxCell>
        <mxCell id="1YaqFMHaYyieEzxT80kR-2266" value="172.32.1.100" style="text;html=1;fontSize=24;fontStyle=1;verticalAlign=middle;align=center;" vertex="1" parent="1">
          <mxGeometry x="-890" y="-715" width="100" height="40" as="geometry" />
        </mxCell>
        <mxCell id="1YaqFMHaYyieEzxT80kR-2267" value="&lt;div style=&quot;text-align: center;&quot;&gt;&lt;span style=&quot;background-color: initial; font-size: 24px;&quot;&gt;&lt;b&gt;172.32.2.1&lt;/b&gt;&lt;/span&gt;&lt;/div&gt;" style="text;whiteSpace=wrap;html=1;" vertex="1" parent="1">
          <mxGeometry x="-1140.1599999999999" y="-850" width="170" height="50" as="geometry" />
        </mxCell>
        <mxCell id="1YaqFMHaYyieEzxT80kR-2268" value="&lt;span style=&quot;color: rgb(0, 0, 0); font-family: Helvetica; font-size: 24px; font-style: normal; font-variant-ligatures: normal; font-variant-caps: normal; font-weight: 700; letter-spacing: normal; orphans: 2; text-align: center; text-indent: 0px; text-transform: none; widows: 2; word-spacing: 0px; -webkit-text-stroke-width: 0px; background-color: rgb(248, 249, 250); text-decoration-thickness: initial; text-decoration-style: initial; text-decoration-color: initial; float: none; display: inline !important;&quot;&gt;172.168.10.1&lt;/span&gt;" style="text;whiteSpace=wrap;html=1;" vertex="1" parent="1">
          <mxGeometry x="-1140.1599999999999" y="-790" width="170" height="50" as="geometry" />
        </mxCell>
        <mxCell id="1YaqFMHaYyieEzxT80kR-2269" value="&lt;span style=&quot;color: rgb(0, 0, 0); font-family: Helvetica; font-size: 24px; font-style: normal; font-variant-ligatures: normal; font-variant-caps: normal; font-weight: 700; letter-spacing: normal; orphans: 2; text-align: center; text-indent: 0px; text-transform: none; widows: 2; word-spacing: 0px; -webkit-text-stroke-width: 0px; background-color: rgb(248, 249, 250); text-decoration-thickness: initial; text-decoration-style: initial; text-decoration-color: initial; float: none; display: inline !important;&quot;&gt;172.31.2.1&lt;/span&gt;" style="text;whiteSpace=wrap;html=1;" vertex="1" parent="1">
          <mxGeometry x="-1140.1599999999999" y="-740" width="170" height="50" as="geometry" />
        </mxCell>
        <mxCell id="1YaqFMHaYyieEzxT80kR-2270" value="&lt;span style=&quot;color: rgb(0, 0, 0); font-family: Helvetica; font-size: 24px; font-style: normal; font-variant-ligatures: normal; font-variant-caps: normal; font-weight: 700; letter-spacing: normal; orphans: 2; text-align: center; text-indent: 0px; text-transform: none; widows: 2; word-spacing: 0px; -webkit-text-stroke-width: 0px; background-color: rgb(248, 249, 250); text-decoration-thickness: initial; text-decoration-style: initial; text-decoration-color: initial; float: none; display: inline !important;&quot;&gt;172.31.1.1&lt;/span&gt;" style="text;whiteSpace=wrap;html=1;" vertex="1" parent="1">
          <mxGeometry x="-1140.1599999999999" y="-680" width="170" height="50" as="geometry" />
        </mxCell>
        <mxCell id="1YaqFMHaYyieEzxT80kR-2272" style="edgeStyle=none;rounded=1;orthogonalLoop=1;jettySize=auto;html=1;exitX=0.5;exitY=0;exitDx=0;exitDy=0;strokeColor=#CC0000;strokeWidth=5;endArrow=none;endFill=0;" edge="1" parent="1" source="1YaqFMHaYyieEzxT80kR-2269" target="1YaqFMHaYyieEzxT80kR-2269">
          <mxGeometry relative="1" as="geometry" />
        </mxCell>
        <mxCell id="1YaqFMHaYyieEzxT80kR-2273" value="" style="image;html=1;image=img/lib/clip_art/networking/Firewall_02_128x128.png" vertex="1" parent="1">
          <mxGeometry x="-270" y="-630" width="80" height="80" as="geometry" />
        </mxCell>
        <mxCell id="1YaqFMHaYyieEzxT80kR-2274" value="FW2" style="text;strokeColor=none;fillColor=none;html=1;fontSize=24;fontStyle=1;verticalAlign=middle;align=center;" vertex="1" parent="1">
          <mxGeometry x="-280" y="-604" width="100" height="40" as="geometry" />
        </mxCell>
        <mxCell id="1YaqFMHaYyieEzxT80kR-2275" value="10.10.1.1" style="text;strokeColor=none;fillColor=none;html=1;fontSize=24;fontStyle=1;verticalAlign=middle;align=center;" vertex="1" parent="1">
          <mxGeometry x="-210" y="-780" width="100" height="40" as="geometry" />
        </mxCell>
        <mxCell id="1YaqFMHaYyieEzxT80kR-2276" value="10.10.2.1" style="text;strokeColor=none;fillColor=none;html=1;fontSize=24;fontStyle=1;verticalAlign=middle;align=center;" vertex="1" parent="1">
          <mxGeometry x="-210" y="-730" width="100" height="40" as="geometry" />
        </mxCell>
        <mxCell id="1YaqFMHaYyieEzxT80kR-2277" value="192.168.20.1" style="text;strokeColor=none;fillColor=none;html=1;fontSize=24;fontStyle=1;verticalAlign=middle;align=center;" vertex="1" parent="1">
          <mxGeometry x="-210" y="-690" width="100" height="40" as="geometry" />
        </mxCell>
        <mxCell id="1YaqFMHaYyieEzxT80kR-2278" value="" style="image;html=1;image=img/lib/clip_art/networking/Firewall_02_128x128.png" vertex="1" parent="1">
          <mxGeometry x="-260" y="-360" width="80" height="80" as="geometry" />
        </mxCell>
        <mxCell id="1YaqFMHaYyieEzxT80kR-2279" value="FW3" style="text;strokeColor=none;fillColor=none;html=1;fontSize=24;fontStyle=1;verticalAlign=middle;align=center;" vertex="1" parent="1">
          <mxGeometry x="-270" y="-330" width="100" height="40" as="geometry" />
        </mxCell>
        <mxCell id="1YaqFMHaYyieEzxT80kR-2280" value="172.31.2.2" style="text;strokeColor=none;fillColor=none;html=1;fontSize=24;fontStyle=1;verticalAlign=middle;align=center;" vertex="1" parent="1">
          <mxGeometry x="-200" y="-495" width="100" height="40" as="geometry" />
        </mxCell>
        <mxCell id="1YaqFMHaYyieEzxT80kR-2281" value="192.168.30.2" style="text;strokeColor=none;fillColor=none;html=1;fontSize=24;fontStyle=1;verticalAlign=middle;align=center;" vertex="1" parent="1">
          <mxGeometry x="-200" y="-455" width="100" height="40" as="geometry" />
        </mxCell>
        <mxCell id="1YaqFMHaYyieEzxT80kR-2282" value="10.10.3.2" style="text;strokeColor=none;fillColor=none;html=1;fontSize=24;fontStyle=1;verticalAlign=middle;align=center;" vertex="1" parent="1">
          <mxGeometry x="-200" y="-415" width="100" height="40" as="geometry" />
        </mxCell>
        <mxCell id="1YaqFMHaYyieEzxT80kR-2283" value="" style="verticalLabelPosition=bottom;sketch=0;aspect=fixed;html=1;verticalAlign=top;strokeColor=none;align=center;outlineConnect=0;shape=mxgraph.citrix.dhcp_server;" vertex="1" parent="1">
          <mxGeometry x="-1410" y="-320" width="76" height="90" as="geometry" />
        </mxCell>
        <mxCell id="1YaqFMHaYyieEzxT80kR-2284" value="" style="verticalLabelPosition=bottom;sketch=0;aspect=fixed;html=1;verticalAlign=top;strokeColor=none;align=center;outlineConnect=0;shape=mxgraph.citrix.dns_server;" vertex="1" parent="1">
          <mxGeometry x="-1260" y="-320" width="76.5" height="92.5" as="geometry" />
        </mxCell>
        <mxCell id="1YaqFMHaYyieEzxT80kR-2285" value="DHCP" style="text;strokeColor=none;fillColor=none;html=1;fontSize=24;fontStyle=1;verticalAlign=middle;align=center;" vertex="1" parent="1">
          <mxGeometry x="-1422" y="-307.5" width="100" height="40" as="geometry" />
        </mxCell>
        <mxCell id="1YaqFMHaYyieEzxT80kR-2286" value="DNS" style="text;strokeColor=none;fillColor=none;html=1;fontSize=24;fontStyle=1;verticalAlign=middle;align=center;" vertex="1" parent="1">
          <mxGeometry x="-1271.75" y="-290" width="100" height="40" as="geometry" />
        </mxCell>
        <mxCell id="1YaqFMHaYyieEzxT80kR-2287" value="" style="fontColor=#0066CC;verticalAlign=top;verticalLabelPosition=bottom;labelPosition=center;align=center;html=1;outlineConnect=0;fillColor=#CCCCCC;strokeColor=#6881B3;gradientColor=none;gradientDirection=north;strokeWidth=2;shape=mxgraph.networks.mail_server;" vertex="1" parent="1">
          <mxGeometry x="-1100" y="-307.5" width="70" height="80" as="geometry" />
        </mxCell>
        <mxCell id="1YaqFMHaYyieEzxT80kR-2288" value="" style="verticalLabelPosition=bottom;sketch=0;aspect=fixed;html=1;verticalAlign=top;strokeColor=none;align=center;outlineConnect=0;shape=mxgraph.citrix.proxy_server;" vertex="1" parent="1">
          <mxGeometry x="-966.5" y="-312.5" width="76.5" height="90" as="geometry" />
        </mxCell>
      </root>
    </mxGraphModel>
  </diagram>
</mxfile>
